<svg width="128" height="70" viewBox="0 0 128 70" fill="none" xmlns="http://www.w3.org/2000/svg">
<g clip-path="url(#clip0_7117_12457)">
<path fill-rule="evenodd" clip-rule="evenodd" d="M27.1567 0.16879C27.3254 0.843488 26.7069 0.731039 26.482 1.40574C26.0322 2.53024 26.4258 5.34148 24.739 5.06036C22.7149 4.66678 23.9519 -1.01193 27.1567 0.16879Z" fill="#289548"/>
<path fill-rule="evenodd" clip-rule="evenodd" d="M21.5905 3.48608C22.7712 3.76721 23.727 4.38568 23.8395 5.73508C23.1648 5.56641 22.715 6.0162 22.4338 5.73508C22.2652 4.94793 21.984 4.10456 21.5905 3.48608Z" fill="#289548"/>
<path fill-rule="evenodd" clip-rule="evenodd" d="M29.0683 2.75513C29.5181 2.75513 29.743 3.03625 29.743 3.42983C29.5744 3.42983 29.6306 3.65473 29.5744 3.76717C29.0683 3.93585 29.1246 3.54228 28.731 3.5985C28.5623 3.09248 29.0121 3.09248 29.0683 2.75513Z" fill="#A2C037"/>
<path fill-rule="evenodd" clip-rule="evenodd" d="M30.98 3.65464C30.7551 3.87954 30.3615 3.87954 30.1366 3.65464C30.0242 2.92371 31.2049 2.64259 30.98 3.65464Z" fill="#A2C037"/>
<path fill-rule="evenodd" clip-rule="evenodd" d="M28.5623 3.99216C28.0563 4.04838 27.6065 3.99216 27.7189 3.48613C28.0001 3.14878 28.731 3.26123 28.5623 3.99216Z" fill="#A2C037"/>
<path fill-rule="evenodd" clip-rule="evenodd" d="M26.6507 3.48613C27.2129 3.42991 27.494 3.71103 27.494 4.16083C27.3816 4.32951 27.0442 4.27328 26.988 4.49818C26.5944 4.44196 26.2571 3.82348 26.6507 3.48613Z" fill="#A2C037"/>
<path fill-rule="evenodd" clip-rule="evenodd" d="M31.7109 3.48608C31.7109 3.71098 31.7109 3.93588 31.7109 4.16078C31.0362 4.32946 31.0362 3.31741 31.7109 3.48608Z" fill="#A2C037"/>
<path fill-rule="evenodd" clip-rule="evenodd" d="M26.1446 8.32129C26.4819 8.32129 26.8193 8.32129 27.2129 8.32129C27.2129 8.88354 26.988 9.16466 26.8755 9.55824C26.4257 9.22089 25.751 8.99599 26.1446 8.32129Z" fill="white"/>
<path fill-rule="evenodd" clip-rule="evenodd" d="M60.4418 9.22111C59.486 9.67091 56.7872 8.49019 55.2129 9.38979C55.7189 7.70304 59.4298 8.65886 60.4418 9.22111Z" fill="#289548"/>
<path fill-rule="evenodd" clip-rule="evenodd" d="M61.4538 8.88354C61.2289 9.67069 61.004 10.4016 60.3855 10.7952C59.8795 10.5141 60.6104 8.88354 61.4538 8.88354Z" fill="#A2C037"/>
<path fill-rule="evenodd" clip-rule="evenodd" d="M55.719 9.72693C59.3174 8.88356 60.7792 11.751 61.4539 14.4498C58.3615 14.1125 56.9559 12.0884 55.5503 10.1205C56.5623 10.0081 57.8555 11.1888 58.8676 11.6948C58.7551 10.7952 57.0684 9.95183 55.719 9.72693Z" fill="#289548"/>
<path fill-rule="evenodd" clip-rule="evenodd" d="M61.7912 9.72705C62.0723 9.89573 62.3534 10.0082 62.2972 10.4018C62.0723 11.0764 61.51 11.47 60.7229 11.6387C61.004 10.9078 61.5663 10.5142 61.7912 9.72705Z" fill="#A2C037"/>
<path fill-rule="evenodd" clip-rule="evenodd" d="M26.8193 10.0645C27.494 10.1207 27.494 10.7954 28.2249 10.7392C27.7751 10.9641 27.1566 11.0203 26.6506 11.2452C26.3133 10.9641 26.7068 10.458 26.8193 10.0645Z" fill="white"/>
<path fill-rule="evenodd" clip-rule="evenodd" d="M62.8595 12.8757C62.2972 12.8194 62.4659 11.9761 62.0161 11.8074C62.4659 10.6829 63.6466 12.707 62.8595 12.8757Z" fill="#289548"/>
<path fill-rule="evenodd" clip-rule="evenodd" d="M22.8836 23.4458C22.4338 20.9719 20.0162 18.1607 22.8836 16.6426C22.715 16.4177 22.715 15.9679 22.3776 15.9679C21.6467 16.4177 21.5342 17.486 21.1407 18.2169C19.6226 17.3173 21.3093 15.5181 21.984 14.731C20.6346 14.0563 21.0282 16.6426 19.735 16.6426C19.7913 15.3494 20.4097 14.6185 20.972 13.8314C20.8595 13.6065 20.6909 13.3816 20.466 13.3253C19.3415 14 20.1286 16.5864 18.5543 16.8113C18.5543 16.0241 19.0041 15.6306 18.8917 14.731C17.711 14.731 18.4981 15.9117 18.217 16.98C16.3053 17.992 15.2371 19.7912 13.6628 21.1406C13.3816 17.9358 9.55834 12.9318 15.2371 12.7631C15.8555 13.2691 16.474 13.8314 16.98 14.5061C17.8796 10.6266 24.7391 11.0201 23.9519 16.249C24.7953 16.3053 25.2451 15.9679 26.2009 16.0804C29.3495 18.4418 27.1567 24.0081 22.8836 23.4458Z" fill="#3A59A1"/>
<path fill-rule="evenodd" clip-rule="evenodd" d="M63.9277 13.5502C63.253 13.6064 62.4659 14.1687 61.8474 13.7189C62.241 13.494 63.7028 12.4257 63.9277 13.5502Z" fill="#A2C037"/>
<path fill-rule="evenodd" clip-rule="evenodd" d="M63.7591 14.4499C63.9278 15.1808 62.6346 15.0122 62.3535 14.7873C62.3535 14.225 63.1969 14.5061 63.7591 14.4499Z" fill="#A2C037"/>
<path fill-rule="evenodd" clip-rule="evenodd" d="M63.0282 15.2932C64.6025 16.5302 63.0282 20.5221 60.7792 18.2731C59.9921 16.3053 61.6226 15.6306 63.0282 15.2932ZM61.4539 17.5984C61.9037 17.5422 62.0162 17.1486 62.1286 16.7551C61.5101 16.5864 61.0603 17.1486 61.4539 17.5984Z" fill="#C20D19"/>
<path fill-rule="evenodd" clip-rule="evenodd" d="M62.1849 16.6989C62.0724 17.0925 61.96 17.4861 61.5102 17.5423C61.0604 17.1487 61.5102 16.5865 62.1849 16.6989Z" fill="white"/>
<path fill-rule="evenodd" clip-rule="evenodd" d="M61.1165 18.7794C61.2852 19.4541 60.3293 19.3978 60.0482 19.1167C60.3293 18.6669 60.6667 18.6107 61.1165 18.7794Z" fill="#289548"/>
<path fill-rule="evenodd" clip-rule="evenodd" d="M19.5101 17.3735C14.5623 18.7792 10.7952 24.7952 13.4378 30.5864C14.7872 29.2932 15.9117 26.7631 17.7671 26.5944C17.3735 28.3936 16.1366 29.3494 16.0241 31.486C18.498 30.9237 22.3213 26.6506 22.0964 23.502C21.984 21.1406 20.0723 19.6225 19.5101 17.3735ZM17.2611 22.2651C17.2048 21.6466 17.4297 21.3093 17.5984 20.8595C15.7992 21.478 15.1808 23.3334 14.1125 24.6828C14.5623 22.2651 16.3615 19.6225 19.004 18.7792C19.5663 19.229 19.5663 20.2972 19.5101 21.3655C18.6105 19.9599 18.1607 22.1527 17.2611 22.2651Z" fill="#F5D631"/>
<path fill-rule="evenodd" clip-rule="evenodd" d="M6.29724 22.7711C6.18479 21.9277 5.51009 21.0844 4.04825 21.5342C-0.281071 22.8836 6.80327 27.1004 6.29724 22.7711ZM5.56632 23.1647C4.83539 23.3334 4.72295 22.6024 5.06029 22.3213C5.22897 22.3213 5.39764 22.3213 5.56632 22.3213C5.56632 22.5462 5.56632 22.8273 5.56632 23.1647Z" fill="#F5D631"/>
<path fill-rule="evenodd" clip-rule="evenodd" d="M28.731 23.1648C25.0202 27.0443 25.4137 35.9841 17.7671 35.3656C18.3856 34.7471 20.0161 35.1969 20.1848 34.1287C19.9037 33.5102 18.9479 33.6226 18.4418 33.2853C19.1165 32.1046 21.3093 31.5985 20.8595 29.7993C19.6226 30.3054 18.7792 31.205 17.5422 31.711C17.0924 31.711 17.3173 31.5985 17.3736 31.3736C19.0041 30.2491 20.1848 29.1246 21.3655 27.3817C22.0402 26.4258 22.4338 25.0202 23.1085 24.4017C24.4017 23.2772 26.5945 23.1648 28.731 23.1648Z" fill="#3A59A1"/>
<path fill-rule="evenodd" clip-rule="evenodd" d="M5.56628 25.9198C4.55424 24.7953 2.36147 24.7391 2.24902 26.4258C2.13657 28.5062 5.95986 29.1809 5.56628 25.9198ZM4.72291 26.9881C4.10444 27.1005 3.93576 26.707 4.04821 26.1447C4.21689 26.1447 4.38556 26.1447 4.55424 26.1447C4.66669 26.3134 4.77914 26.5945 4.72291 26.9881Z" fill="#F5D631"/>
<path fill-rule="evenodd" clip-rule="evenodd" d="M27.8876 34.6348C28.0562 34.691 28.2249 34.8034 28.2249 34.9721C27.5502 36.6026 26.4257 37.7271 25.245 38.7954C25.6948 36.9962 26.3695 35.4219 27.8876 34.6348Z" fill="#289548"/>
<path fill-rule="evenodd" clip-rule="evenodd" d="M24.739 34.8032C24.9077 34.8032 25.0764 34.8032 25.245 34.8032C25.6948 36.0402 24.3454 36.8835 24.4017 38.2892C23.5021 37.3896 24.4579 35.6466 24.739 34.8032Z" fill="#289548"/>
<path fill-rule="evenodd" clip-rule="evenodd" d="M29.9679 37.0523C28.5623 37.6145 27.3254 38.4017 26.1447 39.1326C26.3133 37.7832 28.3937 36.8836 29.4619 35.8153C30.1366 35.7591 29.9117 36.49 29.9679 37.0523Z" fill="#289548"/>
<path fill-rule="evenodd" clip-rule="evenodd" d="M33.2852 37.7833C32.2731 39.695 28.3936 38.0644 27.0442 39.8636C27.5502 38.5705 31.486 36.1528 33.2852 37.7833Z" fill="#A2C037"/>
<path fill-rule="evenodd" clip-rule="evenodd" d="M35.1968 39.6948C35.1406 41.3816 32.7791 40.0884 31.2048 40.2009C29.8554 40.3133 28.7309 40.988 27.7189 41.0442C29.2369 39.8635 32.6104 38.7952 35.1968 39.6948Z" fill="#A2C037"/>
<path fill-rule="evenodd" clip-rule="evenodd" d="M31.7109 41.2693C31.3173 42.6749 29.237 41.3818 28.0563 41.944C28.6747 41.1006 30.6988 40.7071 31.7109 41.2693Z" fill="#289548"/>
<path fill-rule="evenodd" clip-rule="evenodd" d="M3.48596 41.1006C3.99199 41.213 4.38556 41.3817 4.89158 41.4379C4.66668 41.7753 4.61046 42.3375 4.04821 42.2813C3.65464 42.1126 3.59841 41.5504 3.48596 41.1006Z" fill="white"/>
<path fill-rule="evenodd" clip-rule="evenodd" d="M30.6426 42.6185C30.4177 43.6868 27.6627 43.5181 27.3253 42.6185C28.6185 42.7872 29.6305 42.1687 30.6426 42.6185Z" fill="#289548"/>
<path fill-rule="evenodd" clip-rule="evenodd" d="M8.04024 43.1809C8.09646 43.5744 8.20891 43.9118 8.54626 44.0242C8.32136 44.3054 7.42176 43.7993 6.97196 44.1929C6.85951 43.4058 7.14064 43.0122 8.04024 43.1809Z" fill="white"/>
<path fill-rule="evenodd" clip-rule="evenodd" d="M22.49 43.6868C22.0964 43.743 21.8153 43.6868 21.6466 43.5181C21.6466 42.9558 22.5462 43.1245 22.49 43.6868Z" fill="white"/>
<path fill-rule="evenodd" clip-rule="evenodd" d="M20.5784 44.3616C20.8595 44.6427 21.3656 44.6989 21.4218 45.2049C21.1407 45.2612 21.1407 45.0363 20.9158 45.0363C20.3535 44.9238 20.5784 45.5423 20.0724 45.3736C20.1286 44.98 20.6909 45.0363 20.5784 44.3616Z" fill="white"/>
<path fill-rule="evenodd" clip-rule="evenodd" d="M33.7912 46.3295C34.5784 45.711 35.984 45.0925 36.9398 45.9921C37.0523 46.6668 37.5021 47.2291 37.1085 47.9038C37.6145 47.9038 38.1768 47.9038 38.6828 47.9038C39.0764 48.3536 39.6949 49.2532 39.1888 49.9841C39.47 50.4901 40.3133 50.4901 40.7631 50.8275C41.0443 51.8395 40.7631 52.1769 40.2571 52.7391C39.1326 52.5704 37.9519 52.5142 36.9398 52.2331C37.221 51.8957 37.8957 52.0082 37.7832 51.3897C37.8394 50.4339 37.1647 50.2652 36.2089 50.3215C36.4338 49.4219 36.3776 48.9158 35.7029 48.5785C35.1969 48.5223 35.1406 48.9721 34.6346 48.9158C34.8033 48.0162 34.2973 47.8476 33.9599 47.5102C33.4539 47.454 33.0603 47.5664 32.8917 47.8476C32.4981 47.3978 32.3294 46.7793 31.6547 46.6106C30.98 46.6668 30.6427 47.1166 30.4178 47.6789C30.0804 47.2853 29.7993 46.7793 29.1808 46.6106C28.225 46.7231 27.8314 47.454 27.9439 48.6909C24.0643 47.2853 28.6748 42.0564 30.1929 46.1046C30.2491 43.968 34.1286 43.6869 33.7912 46.3295Z" fill="#F5D631"/>
<path fill-rule="evenodd" clip-rule="evenodd" d="M31.8795 47.0041C32.0482 47.3976 32.498 47.5663 32.3855 48.241C31.992 48.5784 31.4297 48.0723 30.6426 48.241C30.8113 47.5663 30.8675 46.8354 31.8795 47.0041Z" fill="#C20D19"/>
<path fill-rule="evenodd" clip-rule="evenodd" d="M28.5623 47.1727C30.4177 46.9478 30.0242 48.4096 30.6426 49.0843C32.0483 47.2289 34.0161 50.8273 31.1487 50.49C30.9238 50.1526 30.6989 49.8153 30.6426 49.253C30.1366 49.4779 30.8113 49.8715 30.6426 50.3213C30.4177 50.3213 30.1928 50.3213 29.9679 50.3213C30.0242 50.6586 30.3615 50.7711 30.3053 51.1647C29.9117 50.3775 28.8434 50.2088 28.731 49.0843C28.731 48.6345 29.0121 48.4096 29.4057 48.4096C29.0683 47.7912 28.6748 48.9157 28.3374 48.4096C28.225 47.7912 28.6748 47.7349 28.5623 47.1727Z" fill="#C20D19"/>
<path fill-rule="evenodd" clip-rule="evenodd" d="M19.1727 45.9358C17.8796 46.2731 18.1607 48.1286 17.5984 49.2531C17.6547 48.0161 17.6547 46.7792 17.2611 45.9358C17.0924 45.9358 16.9237 45.9358 16.7551 45.9358C16.1366 47.5663 17.4298 48.5784 17.2611 50.2651C18.1045 49.3655 18.6667 47.735 19.1727 45.9358Z" fill="#289548"/>
<path fill-rule="evenodd" clip-rule="evenodd" d="M19.1728 47.3413C18.6667 48.1285 18.3856 49.0843 18.1045 50.1526C18.6667 49.5341 20.241 47.9598 19.1728 47.3413Z" fill="#289548"/>
<path fill-rule="evenodd" clip-rule="evenodd" d="M34.1286 49.4219C33.735 49.2532 33.0603 49.3094 32.723 49.0845C32.723 48.7472 32.4981 48.691 32.5543 48.4098C33.4539 47.3978 35.0282 48.3536 34.1286 49.4219Z" fill="#C20D19"/>
<path fill-rule="evenodd" clip-rule="evenodd" d="M23.6708 51.7269C23.5583 51.1647 22.2089 50.3775 20.8595 50.8836C22.3214 46.6667 28.9559 47.9036 29.7993 51.7269C29.968 51.6145 29.968 51.3334 30.3053 51.3896C30.7551 52.5141 29.9117 52.6265 30.1366 53.9759C28.6186 53.6948 27.5503 53.245 25.976 53.4699C25.1326 53.5824 24.4017 54.3695 23.727 54.3133C22.2089 54.2571 21.9278 52.739 20.7471 51.8956C21.478 51.1085 22.6587 51.1647 23.6708 51.7269Z" fill="#F5D631"/>
<path fill-rule="evenodd" clip-rule="evenodd" d="M62.6908 48.5784C62.8595 48.5784 63.0281 48.5784 63.1968 48.5784C65.3896 52.2892 62.4659 56.8434 59.2048 57.7993C61.3976 56.225 63.4779 54.3133 63.0281 50.49C62.9719 49.7591 62.3534 49.4217 62.6908 48.5784Z" fill="#289548"/>
<path fill-rule="evenodd" clip-rule="evenodd" d="M64.4338 49.2531C65.1085 49.0844 64.7712 50.3213 64.6025 50.49C64.1527 50.2651 64.2652 49.7029 64.4338 49.2531Z" fill="#A2C037"/>
<path fill-rule="evenodd" clip-rule="evenodd" d="M32.5543 50.8274C32.6668 50.3214 33.0041 50.0965 33.0603 49.5905C35.4218 49.478 33.735 52.5142 32.5543 50.8274Z" fill="#C20D19"/>
<path fill-rule="evenodd" clip-rule="evenodd" d="M42.8434 50.49C43.0121 50.49 43.1807 50.49 43.3494 50.49C44.9799 51.6707 43.9679 55.1004 42.506 55.7189C42.3936 54.3695 43.2932 52.233 42.8434 50.49Z" fill="#289548"/>
<path fill-rule="evenodd" clip-rule="evenodd" d="M65.8395 50.6586C65.8395 51.3896 64.9961 51.3333 64.4338 51.502C64.6025 50.996 65.2772 50.2651 65.8395 50.6586Z" fill="#A2C037"/>
<path fill-rule="evenodd" clip-rule="evenodd" d="M35.3655 52.4018C34.6346 52.5143 34.2972 52.1769 33.9599 51.8958C33.6225 50.4902 36.3775 50.3777 35.3655 52.4018Z" fill="#C20D19"/>
<path fill-rule="evenodd" clip-rule="evenodd" d="M30.98 51.3335C31.1487 51.3335 31.3173 52.0644 31.486 51.5022C31.9358 51.8395 31.5422 52.8516 30.8113 52.5704C30.8113 52.1206 30.7551 51.5584 30.98 51.3335Z" fill="#C20D19"/>
<path fill-rule="evenodd" clip-rule="evenodd" d="M62.0161 51.3335C62.2972 51.2773 62.2972 51.5022 62.5221 51.5022C62.5221 52.964 61.9598 53.9761 61.6787 55.1568C61.3414 54.201 61.9036 52.5142 62.0161 51.3335Z" fill="#A2C037"/>
<path fill-rule="evenodd" clip-rule="evenodd" d="M66.5141 51.502C65.9519 52.233 64.9398 52.5141 64.0964 52.9077C64.6025 52.233 65.5583 51.2209 66.5141 51.502Z" fill="#A2C037"/>
<path fill-rule="evenodd" clip-rule="evenodd" d="M11.1325 53.2451C12.3133 52.9078 12.6506 51.5584 11.6386 50.8275C9.78313 50.4339 10.1767 52.2893 8.65863 52.2331C8.65863 52.0644 8.48996 52.0082 8.48996 51.8957C8.43373 51.5584 8.65863 51.5022 8.65863 51.221C9.72691 51.3897 10.008 50.8275 10.739 50.715C10.9076 49.703 10.4016 49.3094 10.0643 48.8034C8.88353 48.6347 8.32128 49.0283 7.98394 49.6467C7.98394 50.4339 8.60241 50.6588 8.15261 51.3897C7.64659 51.1086 7.47791 51.4459 7.08434 51.221C7.75904 50.715 7.98394 49.5905 7.42169 48.8034C4.61044 47.6226 4.72289 51.5584 6.91566 51.6146C6.40964 51.6708 6.35341 52.2331 5.67871 52.1206C5.79116 51.221 5.22892 51.0524 5.00402 50.5463C2.53012 49.703 2.64257 53.1889 4.49799 53.1327C5.06024 53.1327 4.94779 52.3455 5.90361 52.458C5.84739 53.0202 6.29719 53.3014 5.90361 53.6949C5.00402 53.4138 4.32932 53.4138 3.82329 53.9761C3.76707 54.5945 3.82329 55.1006 3.99197 55.5503C4.44177 55.719 5.06024 55.7752 5.73494 55.719C6.24096 55.3817 6.18474 54.4258 6.40964 53.8074C6.69076 54.2572 7.53414 54.0885 7.64659 54.6507C6.35341 54.7632 5.79116 56.5624 6.97189 57.2371C9.38956 57.5182 8.99598 55.3254 8.04016 54.2572C8.26506 53.9198 8.43373 53.47 9.10843 53.5825C7.75904 56.3937 11.9759 57.1809 11.3574 53.9198C10.9076 52.6267 8.71486 54.0885 8.77108 52.5142C9.78313 51.8957 10.1767 53.2451 11.1325 53.2451ZM7.30924 52.7391C7.30924 52.5704 7.30924 52.4018 7.30924 52.2331C7.64659 52.1769 7.75904 52.3455 7.98394 52.4018C7.98394 52.6829 7.70281 52.7953 7.30924 52.7391Z" fill="#F5D631"/>
<path fill-rule="evenodd" clip-rule="evenodd" d="M33.7913 52.4016C33.7913 53.1888 33.0603 53.1888 32.5543 53.4699C32.9479 53.0763 33.1728 52.5703 33.7913 52.4016Z" fill="#C20D19"/>
<path fill-rule="evenodd" clip-rule="evenodd" d="M41.7752 56.8996C37.8394 56.9559 37.0523 53.1326 32.3856 54.482C34.1848 51.6707 42.5061 51.7832 41.7752 56.8996Z" fill="#F5D631"/>
<path fill-rule="evenodd" clip-rule="evenodd" d="M67.0201 52.739C66.5141 53.8073 64.8274 53.6386 63.7029 54.1447C64.6587 53.6386 65.6707 52.233 67.0201 52.739Z" fill="#A2C037"/>
<path fill-rule="evenodd" clip-rule="evenodd" d="M60.6105 52.739C61.5663 53.6948 60.3294 55.3254 60.4418 56.5623C60.1045 55.6065 60.1607 53.5262 60.6105 52.739Z" fill="#A2C037"/>
<path fill-rule="evenodd" clip-rule="evenodd" d="M32.3856 53.4138C32.3856 54.201 31.992 54.4821 31.5422 54.8194C29.4056 54.5383 31.0362 51.7833 32.3856 53.4138Z" fill="#C20D19"/>
<path fill-rule="evenodd" clip-rule="evenodd" d="M44.5864 53.0764C44.8675 53.0202 44.8675 53.2451 45.0924 53.2451C45.0924 53.9198 44.755 54.2009 44.249 54.3134C44.1366 53.6949 44.5864 53.6387 44.5864 53.0764Z" fill="#A2C037"/>
<path fill-rule="evenodd" clip-rule="evenodd" d="M44.7551 54.8193C44.474 54.3695 47.1728 52.233 46.6667 54.1446C46.1045 54.482 45.2611 54.482 44.7551 54.8193Z" fill="#A2C037"/>
<path fill-rule="evenodd" clip-rule="evenodd" d="M25.4137 57.6305C24.6828 57.9679 23.9519 58.3614 23.5021 59.0361C20.9157 53.9197 28.6185 52.4016 30.98 55.2128C34.972 55.0442 38.6266 59.8795 35.7029 62.8594C34.1286 62.241 34.0161 60.2169 33.2852 58.8675C32.5543 60.7229 34.9157 61.8474 34.6908 63.1968C31.2611 62.9719 29.8555 60.0482 30.6989 56.5622C29.7993 58.755 26.482 61.1727 23.727 59.3735C24.0643 58.5863 24.9639 58.3052 25.4137 57.6305Z" fill="#3A59A1"/>
<path fill-rule="evenodd" clip-rule="evenodd" d="M59.2048 53.9761C59.3735 53.9761 59.5422 53.9761 59.7108 53.9761C59.7671 55.4941 59.5984 56.7311 58.6426 57.2933C59.0924 56.3937 58.8675 54.8757 59.2048 53.9761Z" fill="#A2C037"/>
<path fill-rule="evenodd" clip-rule="evenodd" d="M66.0081 54.6508C65.6708 55.6066 64.0965 55.2693 63.1969 55.7191C63.1407 55.1568 65.0523 54.2572 66.0081 54.6508Z" fill="#A2C037"/>
<path fill-rule="evenodd" clip-rule="evenodd" d="M21.0844 54.6506C20.8033 55.1004 20.4098 55.494 20.2411 56.0563C20.3535 56.5623 20.6347 55.8876 20.9158 56.0563C19.6226 58.9237 23.8395 60.8916 21.5905 62.5221C19.4539 62.0161 19.9037 59.0924 20.0162 56.7872C19.0604 58.9237 19.229 63.8153 21.2531 64.0964C23.1648 64.3775 23.2772 61.735 24.9077 61.2852C26.7632 61.6787 25.5824 64.2651 24.9077 65.1085C18.217 68.5944 16.3053 56.6747 21.0844 54.6506Z" fill="#289548"/>
<path fill-rule="evenodd" clip-rule="evenodd" d="M40.9318 57.2932C41.2129 58.0241 39.9197 58.755 39.3575 58.8675C36.6587 59.3173 35.0844 55.5502 32.8916 55.0442C36.7711 53.4137 38.1767 57.2932 40.9318 57.2932Z" fill="#F5D631"/>
<path fill-rule="evenodd" clip-rule="evenodd" d="M46.8354 54.8194C46.6667 55.4378 45.6547 55.2692 45.0924 55.4941C45.2049 54.8194 46.2731 54.482 46.8354 54.8194Z" fill="#A2C037"/>
<path fill-rule="evenodd" clip-rule="evenodd" d="M15.1808 60.3856C14.9559 57.4619 17.5985 55.8314 19.9037 54.8193C18.0483 56.4499 17.5422 59.3736 15.1808 60.3856Z" fill="#A2C037"/>
<path fill-rule="evenodd" clip-rule="evenodd" d="M63.9277 56.3938C63.8715 57.2371 62.747 57.0685 61.8474 57.0685C62.3534 56.6749 62.8595 56.2813 63.9277 56.3938Z" fill="#A2C037"/>
<path fill-rule="evenodd" clip-rule="evenodd" d="M17.4298 58.8113C18.1045 59.3735 17.4861 60.2169 17.5985 60.8916C17.8234 62.747 19.7913 64.0964 19.1728 66.1205C15.6306 67.0201 16.0242 60.1045 17.4298 58.8113Z" fill="#A2C037"/>
<path fill-rule="evenodd" clip-rule="evenodd" d="M30.474 62.8596C29.5181 63.703 28.5623 64.5464 26.8193 64.6026C26.988 62.9158 29.4057 63.5343 30.474 62.8596Z" fill="#289548"/>
<path fill-rule="evenodd" clip-rule="evenodd" d="M30.98 63.8716C29.9679 64.6587 29.0683 66.2893 27.6627 66.1206C27.5502 64.7712 29.5743 64.2652 30.98 63.8716Z" fill="#289548"/>
<path fill-rule="evenodd" clip-rule="evenodd" d="M28.5623 67.5262C28.6185 65.5021 30.6426 65.5583 31.5422 64.3776C31.8233 64.3214 31.8795 64.49 31.8795 64.7149C30.6988 65.5583 30.1928 67.7511 28.5623 67.5262Z" fill="#289548"/>
<path fill-rule="evenodd" clip-rule="evenodd" d="M32.0482 64.6025C32.3293 65.4459 31.7671 69.8877 29.7992 68.4258C30.0803 66.6829 31.5422 66.1206 32.0482 64.6025Z" fill="#A2C037"/>
<path fill-rule="evenodd" clip-rule="evenodd" d="M33.1166 65.2773C33.4539 66.1207 33.2852 68.2573 32.6105 69.1006C30.5864 68.4822 32.8354 66.3456 33.1166 65.2773Z" fill="#A2C037"/>
<path fill-rule="evenodd" clip-rule="evenodd" d="M33.9599 65.6145C34.466 66.4017 34.7471 68.9318 33.9599 69.4378C32.723 68.6506 34.1286 66.9639 33.9599 65.6145Z" fill="#289548"/>
<path fill-rule="evenodd" clip-rule="evenodd" d="M36.2089 65.7832C36.9398 66.6828 38.233 68.3133 37.6145 69.4378C36.49 69.6065 36.2089 67.4137 36.2089 65.7832Z" fill="#289548"/>
<path fill-rule="evenodd" clip-rule="evenodd" d="M34.8033 65.9519C35.3093 66.5704 36.49 68.8194 35.3093 69.4378C34.3535 69.1567 35.0282 67.1326 34.8033 65.9519Z" fill="#289548"/>
<path fill-rule="evenodd" clip-rule="evenodd" d="M45.2611 7.14062C45.4298 7.92777 44.0242 8.71492 43.1808 9.05227C44.98 9.89565 45.992 8.77115 47.735 8.37757C47.3977 8.82737 46.8916 9.05227 46.3294 9.22095C47.5101 10.1205 49.478 8.99605 51.2209 8.8836C50.8836 9.44585 49.984 9.38962 49.3093 9.5583C49.8715 10.1205 50.996 10.0643 51.727 10.4017C50.1527 10.5141 47.9037 9.83942 45.992 9.72697C46.4981 10.3454 47.3414 10.5703 48.0723 10.9639C46.5543 10.5703 44.1928 9.27717 42.1687 9.72697C43.237 10.3454 44.3053 10.9639 45.3173 11.6386C43.5181 11.4699 41.7752 9.05227 38.6828 10.0643C39.4699 11.1888 41.1567 11.4137 41.8314 12.6507C40.2009 12.1446 38.3454 9.16472 36.4338 11.0764C36.7711 11.3575 37.5583 11.245 37.8394 11.5824C36.8274 11.7511 35.2531 11.3013 34.8595 11.9197C35.7029 10.0081 38.4017 10.0081 39.0201 7.92777C39.4699 8.49002 38.5141 9.1085 38.3454 9.67075C39.976 9.38962 40.8193 8.32135 41.8314 7.42175C42.0563 8.15267 40.7069 8.8836 40.0884 9.3334C42.0563 9.61452 44.2491 8.49002 45.2611 7.14062Z" fill="white"/>
<path fill-rule="evenodd" clip-rule="evenodd" d="M41.2691 6.07244C42.2249 5.95999 43.237 4.32946 44.7551 4.16079C44.8675 5.06039 44.4177 5.34151 44.249 5.90376C44.98 5.79131 46.1045 4.61059 47.229 4.32946C47.229 4.83549 47.229 5.39774 47.229 5.90376C48.2972 5.56641 49.9278 5.79131 51.0523 5.56641C51.2772 6.40979 50.49 6.29734 50.5462 6.97203C51.6707 7.30938 53.0763 7.36561 54.0322 7.81541C53.9759 8.60256 53.3575 8.88368 52.7952 9.22103C53.9197 9.8395 54.8755 10.6267 55.9438 11.3014C55.1567 12.3134 53.3575 12.3134 51.6145 12.3696C51.2772 12.5945 52.1768 13.0443 52.2892 13.4379C51.6145 14.0001 50.1527 14.0564 49.1406 13.7752C48.6346 14.0001 49.4217 14.3937 49.3093 14.8435C48.1848 15.0684 46.7229 15.0684 45.8233 14.6748C45.486 14.6748 46.1045 15.3495 45.6547 15.5182C44.3053 15.968 42.9559 15.4058 42.1687 14.8435C41.6065 15.1246 42.5061 15.7993 42 16.0805C40.0884 15.9118 38.6828 15.2371 37.8394 14.0001C37.4458 14.0564 37.8394 14.8997 37.5021 15.0684C36.0402 14.956 35.8715 13.5503 35.0844 12.8194C33.2852 15.462 32.0482 18.6106 29.1808 20.1287C28.6747 20.1287 28.5623 19.6789 28.1125 19.6226C29.3494 17.7672 31.6547 17.0363 32.6667 14.8997C31.3173 15.4058 29.6868 18.0483 27.7751 18.0483C29.0121 15.7431 31.992 15.1809 33.3414 12.9881C31.992 12.9881 30.5302 16.0242 28.6185 14.8997C30.249 13.0443 33.5663 12.8756 34.5221 10.3455C33.0041 10.7391 31.3173 10.458 30.6988 9.50216C30.7551 9.10858 31.5984 9.38971 31.7671 9.50216C31.0924 8.60256 29.237 7.98408 30.0241 6.18489C30.6426 6.29734 30.6988 6.97203 30.8675 7.59051C31.4298 6.80336 29.2932 5.06039 31.0362 4.61059C31.6547 6.12866 32.1607 7.75918 33.8474 8.26521C34.241 7.70296 32.8354 7.42183 33.0041 6.52224C33.7912 6.40979 34.0723 6.85959 34.4097 7.19693C34.1286 6.24111 32.9478 6.07244 32.3294 5.45396C33.0603 4.44191 34.0723 5.79131 34.5784 6.12866C34.5784 5.56641 34.0161 5.62264 34.241 4.89171C34.9157 4.61059 35.8715 5.06039 35.6466 6.29734C35.7591 6.74714 36.1527 5.73509 36.49 6.29734C36.2651 7.59051 36.0402 8.82746 35.4217 9.78328C36.2089 8.77123 37.2772 8.04031 37.5021 6.46601C38.1205 6.29734 37.727 7.14071 37.8394 7.53428C39.0201 6.18489 39.976 4.66681 41.8314 4.04834C42.3936 4.27324 41.494 5.51019 41.2691 6.07244ZM40.0322 9.38971C40.6506 8.88368 42 8.20898 41.7751 7.47806C40.7631 8.43388 39.9197 9.44593 38.2892 9.72705C38.4579 9.22103 39.4137 8.54633 38.9639 7.98408C38.3454 10.0644 35.5904 10.0644 34.8033 11.9761C35.1406 11.3576 36.7711 11.8074 37.7832 11.6387C37.5021 11.3014 36.7149 11.4138 36.3776 11.1327C38.2892 9.22103 40.1446 12.201 41.7751 12.707C41.1004 11.47 39.4137 11.1889 38.6265 10.1206C41.6627 9.10858 43.4619 11.5263 45.2611 11.6949C44.249 11.0202 43.1808 10.4018 42.1125 9.78328C44.1928 9.27726 46.498 10.6267 48.0161 11.0202C47.2852 10.6267 46.4418 10.4018 45.9358 9.78328C47.8474 9.89573 50.0964 10.6267 51.6707 10.458C50.9398 10.1206 49.7591 10.1769 49.2531 9.61461C49.984 9.44593 50.8274 9.44593 51.1647 8.93991C49.478 8.99613 47.5101 10.1206 46.3294 9.22103C46.8916 8.99613 47.3976 8.77123 47.735 8.37766C45.992 8.82746 44.98 9.95195 43.1808 9.05236C44.0241 8.71501 45.4298 7.92786 45.2611 7.14071C44.249 8.49011 42.0563 9.61461 40.0322 9.38971Z" fill="#289548"/>
<path fill-rule="evenodd" clip-rule="evenodd" d="M10.4579 28.0001C10.0643 30.1929 12.2009 31.3174 12.7069 33.2291C9.61451 31.9359 7.53418 30.0805 7.47796 26.7632C7.42173 23.5022 10.4017 20.3536 10.0643 17.711C10.0081 16.9238 9.27716 16.5303 9.38961 15.968C11.6386 16.6427 13.4378 19.3977 13.0442 22.6026C12.7631 25.0202 10.7952 28.1126 12.8755 30.0805C12.0322 30.1367 11.7511 28.1126 10.4579 28.0001Z" fill="#3A59A1"/>
<path fill-rule="evenodd" clip-rule="evenodd" d="M20.3535 30.3053C20.2972 31.4298 18.6667 32.5543 17.5422 33.2852C18.1045 33.735 18.8916 33.9037 19.6225 34.1286C18.9478 34.747 17.3735 34.747 16.3053 34.4659C16.1928 35.2531 16.8113 35.2531 16.8113 35.8715C15.8555 35.9277 15.5181 35.4217 14.8997 35.1968C14.6748 36.4338 15.0121 37.8956 14.8997 39.5261C15.4619 38.2892 16.1928 36.3213 17.486 36.3775C17.0362 38.4016 14.6185 39.6386 15.743 42.1125C17.2049 39.0201 18.8354 35.2531 22.7149 35.1406C22.1527 36.8273 20.0161 36.8273 19.229 38.2892C20.0161 38.4579 21.3655 37.6145 22.3776 38.2892C20.0161 39.8073 16.6426 40.3695 16.3053 43.8555C14.225 43.8555 13.2691 44.98 11.7511 45.5984C11.5262 44.1366 13.5503 43.5743 14.8997 43.1808C14.3374 42.3936 13.6065 42.5623 12.8193 42.6747C12.8756 41.9438 13.5503 41.8876 14.225 41.8314C13.7752 40.988 12.7069 40.6506 12.482 39.5824C13.1005 39.1888 13.494 40.2571 14.0563 40.4257C12.5944 38.3454 10.7952 36.6024 9.16471 34.6908C6.85949 35.7029 5.17274 33.8474 2.3615 34.3535C1.4619 34.5221 1.237 35.3093 -0.0561713 35.0282C-0.224846 32.7229 2.47395 31.8796 3.9358 30.6988C9.72696 30.6988 10.5703 36.6587 14.225 39.0763C13.8876 36.3775 11.0201 36.2651 10.739 33.5101C12.6507 34.0723 13.2691 35.8715 14.0563 37.502C14.3374 36.49 13.8314 34.9157 14.225 33.6788C13.2129 33.3976 13.7752 34.747 12.8193 34.5221C12.7069 33.8474 12.988 33.5101 13.1567 33.1165C12.2009 31.8233 11.0764 30.6988 10.739 28.7872C11.8073 29.5743 12.2571 30.98 13.8876 31.2049C14.8434 29.6868 15.4619 27.8876 17.2049 27.2129C16.6426 28.731 15.0121 30.1366 15.6306 32.2731C17.8796 32.2169 19.2852 31.3735 20.3535 30.3053Z" fill="#289548"/>
<path fill-rule="evenodd" clip-rule="evenodd" d="M8.20889 17.7671C7.98399 18.5542 8.20889 18.3293 8.37756 19.004C7.70287 18.8916 7.53419 19.3414 6.80327 19.1727C8.60246 21.7591 3.65467 21.8153 4.89162 19.1727C5.34142 19.004 6.24102 18.8354 6.63459 19.1727C7.08439 18.6667 7.36552 17.8795 8.20889 17.7671Z" fill="#C20D19"/>
<path fill-rule="evenodd" clip-rule="evenodd" d="M13.2129 49.422C12.3133 49.2533 11.1888 49.7031 11.8073 50.4902C12.2571 50.0404 13.1005 50.0967 13.2129 49.422Z" fill="#289548"/>
<path fill-rule="evenodd" clip-rule="evenodd" d="M16.5301 52.4018C15.0683 51.7271 14.5623 52.9641 13.7189 53.4701C12.7068 51.1649 14.5623 49.4781 15.7992 48.4099C15.237 48.185 14.3374 48.2412 13.5502 48.2412C13.9438 47.6227 12.7068 47.454 12.1446 47.1729C11.4699 46.7231 11.4699 45.5424 10.233 45.5986C10.1767 47.5103 12.2008 47.3416 13.2129 48.185C11.3012 48.185 8.43376 47.2854 7.64661 47.3416C9.50203 48.2974 11.4699 49.0846 14.4498 48.9159C11.5261 50.2091 12.9317 57.5745 16.1928 55.8878C17.0924 55.438 17.4297 53.4139 16.5301 52.4018Z" fill="#289548"/>
<path fill-rule="evenodd" clip-rule="evenodd" d="M34.2972 49.984C34.5784 49.478 35.3655 48.8033 35.8715 49.1406C36.2089 49.5342 35.984 50.3213 35.7029 50.5462C36.0402 50.9398 37.0523 50.6025 37.4458 50.8836C37.6145 51.8394 36.8836 51.9519 36.0402 51.9519C36.3213 50.4338 34.6346 50.8274 34.2972 49.984Z" fill="#C20D19"/>
<path fill-rule="evenodd" clip-rule="evenodd" d="M27.8876 7.59056C29.6868 7.36566 30.6988 10.5705 28.3936 10.5705C28.7872 10.9078 29.1245 11.3576 29.237 11.9761C29.0121 12.9319 28.4498 13.4942 27.1566 13.3817C26.3695 12.8757 26.7068 10.4018 25.0763 11.3014C25.5823 12.0886 26.7631 12.5384 26.3133 13.7191C25.3012 14.6749 23.502 14.1689 23.3333 12.8757C23.4458 11.9199 24.6827 11.9761 24.739 10.9641C24.6827 10.7954 24.5703 10.7954 24.5703 10.6267C23.6145 10.5143 23.7269 11.4139 23.502 12.0323C22.8273 12.3697 21.9277 12.201 21.4217 11.8637C21.253 11.4139 21.1968 10.7954 21.253 10.1207C21.7028 9.83956 22.0402 9.50221 22.6586 9.44598C23.0522 9.72711 23.3896 10.0082 23.7269 10.2894C24.2892 10.458 24.0643 9.83956 24.4016 9.78333C24.4016 8.99618 23.2771 8.93996 22.6586 9.27731C19.4538 7.47811 25.0763 4.32952 24.5703 8.93996C25.245 8.93996 25.5823 8.54639 25.8072 8.09659C25.751 7.53434 25.1325 7.47811 25.1325 6.85964C24.9639 4.10462 29.6868 5.56647 27.8876 7.59056ZM26.8193 9.33353C26.9317 8.93996 27.2129 8.65883 27.1566 8.09659C26.8193 8.09659 26.4819 8.09659 26.0884 8.09659C25.751 8.77128 26.4257 8.99618 26.8193 9.33353ZM26.6506 11.0765C27.1004 10.8516 27.7751 10.7954 28.2249 10.5705C27.494 10.6267 27.494 9.89578 26.8193 9.89578C26.7068 10.2331 26.3133 10.7392 26.6506 11.0765Z" fill="#C20D19"/>
<path fill-rule="evenodd" clip-rule="evenodd" d="M6.80332 44.5864C6.52219 44.5864 6.24107 44.5864 5.95995 44.5864C5.73505 45.5985 6.52219 45.6547 6.63464 46.3294C5.8475 49.8716 1.85553 45.486 5.3977 44.9238C5.3977 44.3615 4.9479 44.3053 4.55432 44.2491C4.61055 46.7792 0.506131 47.0041 1.96798 43.7431C2.64268 43.2933 3.42983 43.6306 3.99207 43.8555C4.38565 43.7431 4.16075 42.7872 3.99207 42.6186C2.41778 44.0804 -0.112343 42.225 1.5744 40.5382C2.13665 40.5945 2.86758 40.4258 3.1487 40.7069C2.36155 38.964 5.22902 37.7832 5.95995 39.47C6.12862 40.4258 5.56637 40.5382 5.45392 41.2129C5.6226 41.6627 6.12862 41.6627 6.69087 41.719C6.52219 40.7069 6.12862 39.976 6.69087 39.1326C7.92782 38.6828 8.88364 39.0764 9.10854 39.8073C9.61456 41.4378 7.70292 41.6627 6.85954 42.3937C7.92782 43.6306 8.15272 41.6065 9.10854 41.5503C11.1326 41.3816 11.5824 44.1929 9.10854 44.3615C9.55834 45.4298 8.99609 46.1607 8.60252 46.7792C7.14067 46.9479 6.12862 45.9358 6.80332 44.5864ZM3.99207 42.2812C4.61055 42.2812 4.66677 41.7752 4.83545 41.4378C4.32942 41.3254 3.93585 41.1567 3.42983 41.1005C3.5985 41.5503 3.65472 42.1125 3.99207 42.2812ZM6.97199 44.1929C7.42179 43.7993 8.32139 44.3053 8.54629 44.0242C8.20894 43.9117 8.09649 43.5744 8.04027 43.1808C7.14067 43.0121 6.85954 43.4057 6.97199 44.1929Z" fill="#C20D19"/>
<path fill-rule="evenodd" clip-rule="evenodd" d="M22.8274 42.1125C22.7711 42.5623 23.1085 42.6748 23.3334 42.7872C23.5021 42.6748 23.1647 41.7752 23.5021 41.3816C24.6828 40.2571 27.0442 41.9438 25.5824 42.9559C26.2009 43.5181 26.5944 44.9238 25.7511 45.5422C25.0201 45.486 25.1326 44.6426 24.6828 44.3053C25.976 45.6547 23.727 48.9157 22.2651 46.5543C22.1527 45.8796 22.4338 45.5422 22.6025 45.1487C22.3213 45.1487 22.0402 45.1487 21.7591 45.1487C22.4338 46.6667 21.3655 48.1848 20.0161 47.5663C19.735 47.1165 19.3976 46.0483 19.8474 45.486C18.0482 45.9358 17.4298 43.9679 18.4418 43.0683C19.229 43.1246 19.7912 43.4619 20.5221 43.5744C20.8595 43.5744 20.6346 43.0121 20.8595 42.8997C17.2611 44.3053 18.8354 38.6266 21.1968 40.988C21.2531 41.6065 21.1406 41.9438 21.0282 42.3936C21.0844 42.6185 21.984 42.1687 22.2651 42.0563C21.8715 41.494 21.1968 41.1567 21.1968 40.1446C22.8836 38.3455 25.0201 41.0442 22.8274 42.1125ZM21.5904 43.5181C21.8153 43.6868 22.0402 43.743 22.4338 43.6868C22.5462 43.1246 21.6466 42.9559 21.5904 43.5181ZM20.0161 45.4298C20.5784 45.5422 20.3535 44.9238 20.8595 45.0924C21.0844 45.0924 21.0844 45.3173 21.3655 45.2611C21.3093 44.7551 20.747 44.6989 20.5221 44.4177C20.6908 45.0362 20.1286 44.98 20.0161 45.4298Z" fill="#3A59A1"/>
<path fill-rule="evenodd" clip-rule="evenodd" d="M49.6466 67.6948C49.3093 68.2009 50.6025 68.5944 50.49 69.4378C48.241 69.2129 46.7229 68.2571 45.2611 67.1888C44.98 67.9197 46.1607 68.7069 45.9358 70.0001C44.5864 69.2691 43.3494 68.4258 42.2812 67.4137C41.9438 67.6386 42 68.3133 41.7751 68.6507C40.6506 68.0884 40.482 66.5703 39.6948 65.6707C39.4699 65.8956 39.3575 66.2892 39.3575 66.739C38.7952 66.1768 38.6828 64.6587 39.0201 63.7591C38.6828 62.9719 37.0523 63.478 37.1085 62.3535C39.0201 62.6346 41.494 63.9278 42.6747 65.5021C42.4498 64.8836 41.9438 64.49 41.4378 64.0964C43.3494 63.3655 44.9237 64.4338 45.7671 65.3334C46.0482 64.8274 44.5302 64.6025 44.5302 63.7591C46.7229 62.6346 47.5101 64.9398 49.0844 65.5021C48.8595 64.3776 47.3976 64.5462 47.1727 63.4217C49.0844 62.2972 50.3213 63.984 51.8956 64.2651C51.3334 63.7029 50.49 63.4217 49.8153 63.0282C50.7149 62.0161 52.4579 62.4659 53.8073 62.6908C53.9197 62.0161 52.6265 62.747 52.739 62.0161C54.2008 61.7912 55.0442 60.9479 56.3936 60.6105C55.1004 60.4418 53.6948 61.6225 52.233 61.8474C52.7952 61.2852 53.4137 60.8354 53.9759 60.2731C52.739 60.3856 51.9518 62.4097 49.984 62.3535C49.9278 61.3414 50.8274 61.3414 50.8274 60.4418C50.2089 60.4418 49.6466 61.9599 49.2531 62.6908C48.0161 62.4659 47.5663 63.0844 46.4418 63.0282C46.9478 62.241 47.8474 61.8474 48.1848 60.9479C47.0603 61.1727 45.992 63.8715 44.1928 63.3655C44.5302 62.5784 45.0924 61.9599 45.5984 61.2852C44.9237 61.3976 44.0804 62.9157 43.3494 63.5342C42.8996 63.4217 41.9438 63.7591 41.7751 63.3655C40.9318 63.3093 42.1687 62.8595 42.1125 62.5221C41.494 62.5784 41.494 63.3093 40.7069 63.1968C40.0884 62.8595 40.4257 62.6346 39.6386 63.0282C39.245 62.1286 38.6828 60.3294 39.6386 59.5422C40.0884 59.4298 39.9759 59.8796 40.3133 59.8796C40.482 57.6868 42.2249 58.1366 43.1245 56.731C43.4619 56.8434 43.5181 57.0121 43.2932 57.237C44.1928 57.0683 44.3615 56.225 45.3735 56.1687C45.3173 56.5623 45.0924 56.8434 45.2049 57.4057C46.2731 57.0683 46.9478 54.8756 48.8595 54.8193C48.8595 55.494 48.8595 56.225 48.8595 56.8997C49.7029 56.1687 50.5462 54.5382 51.8394 54.8193C51.9518 55.5503 51.5583 55.7189 51.6707 56.3936C52.1767 56.3936 52.9077 55.2129 54.2571 55.5503C54.3133 56.2812 54.0884 56.6748 53.9197 57.1246C55.0442 56.731 56.3374 55.8314 57.9117 56.4499C57.743 57.2932 57.3494 57.8555 57.0683 58.5302C58.0241 58.7551 59.486 58.4177 60.5543 58.8675C60.0482 61.0041 58.3615 62.0161 56.731 63.0282C56.8996 63.7591 57.6868 63.9278 57.7992 64.7711C57.1245 65.3334 55.2129 65.2209 54.482 64.7711C54.482 65.5583 55.494 65.3896 55.3253 66.3454C54.3133 66.2892 53.6386 66.6266 52.5141 66.5141C52.5141 67.3013 53.3012 67.3575 53.1888 68.2571C51.8956 68.2571 50.4338 68.3133 49.6466 67.6948Z" fill="#289548"/>
<path d="M56 45.7672C55.9438 45.7672 55.9438 45.7672 55.8876 45.7672C55.8314 45.7672 55.8314 45.7672 55.7751 45.7672C55.7189 45.7672 55.7189 45.7672 55.6627 45.711C55.6065 45.6548 55.6065 45.6548 55.5502 45.6548L55.6065 45.205C55.6627 45.205 55.6627 45.2612 55.7189 45.2612C55.7751 45.2612 55.8314 45.3174 55.8876 45.3174C55.9438 45.3174 56.0563 45.3174 56.1125 45.2612C56.1687 45.205 56.2249 45.1487 56.2812 45.0363L55.2129 42.8435H55.8314L56.5623 44.4178L57.237 42.8435H57.8555L56.8434 45.0925C56.7872 45.205 56.731 45.3174 56.6747 45.4299C56.6185 45.5423 56.5623 45.5985 56.5061 45.6548C56.4498 45.711 56.3936 45.7672 56.2812 45.7672C56.1687 45.7672 56.1125 45.7672 56 45.7672Z" fill="#333333"/>
<path d="M58.755 44.0241H58.9799L59.8795 42.7871H60.5542L59.486 44.1927L60.6667 45.7108H60.0482L59.0924 44.4739H58.8113V45.7108H58.249V42.7871H58.8113V44.0241H58.755Z" fill="#333333"/>
<path d="M60.8916 45.7108V42.7871H62.1285C62.241 42.7871 62.4097 42.8433 62.5221 42.8996C62.6346 42.9558 62.747 43.012 62.8032 43.1245C62.8595 43.2369 62.9719 43.3494 62.9719 43.4618C63.0281 43.5743 63.0281 43.6867 63.0281 43.7992C63.0281 43.9116 63.0281 44.0241 62.9719 44.1365C62.9157 44.249 62.8595 44.3614 62.8032 44.4739C62.747 44.5863 62.6346 44.6425 62.5221 44.6988C62.4097 44.755 62.2972 44.755 62.1285 44.755H61.4539V45.767H60.8916V45.7108ZM61.4539 44.249H62.1285C62.241 44.249 62.2972 44.1927 62.4097 44.1365C62.4659 44.0241 62.5221 43.9116 62.5221 43.7992C62.5221 43.7429 62.5221 43.6305 62.4659 43.5743C62.4659 43.518 62.4097 43.4618 62.3534 43.4056C62.2972 43.3494 62.2972 43.3494 62.241 43.2931C62.1848 43.2931 62.1285 43.2369 62.0723 43.2369H61.4539V44.249Z" fill="#333333"/>
<path d="M64.0965 42.7871H64.6025L65.727 45.7108H65.1647L64.8836 44.9799H63.8716L63.5904 45.7108H63.0282L64.0965 42.7871ZM64.7712 44.5863L64.3776 43.4056L63.9278 44.5863H64.7712Z" fill="#333333"/>
<path d="M65.7269 42.4499V41.9438H66.1767V42.4499H65.7269ZM66.0643 45.7109V42.7872H66.6265V45.7109H66.0643ZM66.5141 42.4499V41.9438H66.9639V42.4499H66.5141Z" fill="#333333"/>
<path d="M69.7189 42.7871V45.7108H69.1566V44.4739H67.8072V45.7108H67.245V42.7871H67.8072V43.9678H69.1566V42.7871H69.7189Z" fill="#333333"/>
<path d="M70.1687 44.2491C70.1687 44.0805 70.2249 43.9118 70.2811 43.7431C70.3374 43.5744 70.4498 43.4058 70.5623 43.2933C70.6747 43.1809 70.8434 43.0684 71.0121 42.956C71.1807 42.8435 71.4056 42.8435 71.6305 42.8435C71.9117 42.8435 72.1366 42.8997 72.3052 43.0122C72.5301 43.1246 72.6426 43.2933 72.755 43.462L72.3052 43.7431C72.249 43.6869 72.1928 43.5744 72.1928 43.5182C72.1366 43.462 72.0803 43.4058 72.0241 43.4058C71.9679 43.3495 71.9117 43.3495 71.7992 43.3495C71.743 43.3495 71.6868 43.3495 71.5743 43.3495C71.4056 43.3495 71.2932 43.4058 71.1807 43.462C71.0683 43.5182 71.0121 43.5744 70.8996 43.6869C70.8434 43.7993 70.7872 43.9118 70.731 44.0242C70.6747 44.1367 70.6747 44.2491 70.6747 44.3616C70.6747 44.474 70.6747 44.6427 70.731 44.7552C70.7872 44.8676 70.8434 44.9801 70.8996 45.0925C70.9558 45.205 71.0683 45.2612 71.1807 45.3174C71.2932 45.3736 71.4056 45.3736 71.5181 45.3736C71.5743 45.3736 71.6305 45.3736 71.743 45.3736C71.7992 45.3736 71.8554 45.3174 71.9679 45.3174C72.0241 45.2612 72.0803 45.2612 72.1366 45.205C72.1928 45.1487 72.249 45.0925 72.249 44.9801L72.6988 45.2612C72.6426 45.3736 72.5864 45.4861 72.4739 45.5423C72.3615 45.5985 72.3052 45.711 72.1928 45.7672C72.0803 45.8234 71.9679 45.8797 71.8554 45.8797C71.743 45.9359 71.6305 45.9359 71.4619 45.9359C71.237 45.9359 71.0683 45.8797 70.8996 45.8234C70.7309 45.711 70.5623 45.5985 70.4498 45.4861C70.3374 45.3174 70.2249 45.205 70.1687 44.9801C70.2249 44.6427 70.1687 44.4178 70.1687 44.2491Z" fill="#333333"/>
<path d="M73.2049 42.7871H73.7672V43.8554H74.3294C74.4981 43.8554 74.6105 43.8554 74.723 43.9116C74.8354 43.9678 74.9479 44.0241 75.0603 44.0803C75.1728 44.1365 75.229 44.249 75.2852 44.3614C75.3414 44.4739 75.3414 44.5863 75.3414 44.755C75.3414 44.9237 75.3414 45.0361 75.2852 45.1486C75.229 45.261 75.1728 45.3735 75.0603 45.4297C74.9479 45.4859 74.8354 45.5984 74.723 45.5984C74.6105 45.6546 74.4418 45.6546 74.3294 45.6546H73.1487V42.7871H73.2049ZM73.7672 45.261H74.2732C74.4419 45.261 74.5543 45.2048 74.6105 45.1486C74.6667 45.0361 74.723 44.9237 74.723 44.8112C74.723 44.6425 74.6667 44.5301 74.6105 44.4739C74.5543 44.3614 74.3856 44.3614 74.2732 44.3614H73.7672V45.261Z" fill="#333333"/>
<path d="M76.3535 44.0241H76.5784L77.478 42.7871H78.1527L77.0844 44.1927L78.2652 45.7108H77.5905L76.6346 44.4739H76.3535V45.7108H75.7913V42.7871H76.3535V44.0241Z" fill="#333333"/>
<path d="M79.3334 42.7871H79.8394L80.9639 45.7108H80.4017L80.1206 44.9799H79.1085L78.8274 45.7108H78.2651L79.3334 42.7871ZM80.0081 44.5863L79.6145 43.4056L79.1647 44.5863H80.0081Z" fill="#333333"/>
<path d="M83.1005 42.7871H83.6065L84.731 45.7108H84.1688L83.8877 44.9799H82.8756L82.5945 45.7108H82.0322L83.1005 42.7871ZM83.7752 44.5863L83.3816 43.4056L82.9318 44.5863H83.7752Z" fill="#333333"/>
<path d="M84.7872 44.2491C84.7872 44.0805 84.8435 43.9118 84.8997 43.7431C84.9559 43.5744 85.0684 43.4058 85.1808 43.2933C85.2933 43.1809 85.4619 43.0684 85.6306 42.956C85.7993 42.8435 86.0242 42.8435 86.2491 42.8435C86.5302 42.8435 86.7551 42.8997 86.98 43.0122C87.2049 43.1246 87.3174 43.2933 87.4298 43.462L86.98 43.7431C86.9238 43.6869 86.8675 43.5744 86.8113 43.5182C86.7551 43.462 86.6989 43.4058 86.6427 43.4058C86.5864 43.3495 86.5302 43.3495 86.4178 43.3495C86.3615 43.3495 86.3053 43.3495 86.1929 43.3495C86.0242 43.3495 85.9117 43.4058 85.7993 43.462C85.6868 43.5182 85.6306 43.5744 85.5182 43.6869C85.4619 43.7993 85.4057 43.9118 85.3495 44.0242C85.2933 44.1367 85.2933 44.2491 85.2933 44.3616C85.2933 44.474 85.2933 44.6427 85.3495 44.7552C85.4057 44.8676 85.4619 44.9801 85.5182 45.0925C85.5744 45.205 85.6868 45.2612 85.7993 45.3174C85.9117 45.3736 86.0242 45.3736 86.1366 45.3736C86.1929 45.3736 86.2491 45.3736 86.3615 45.3736C86.4178 45.3736 86.474 45.3174 86.5864 45.3174C86.6427 45.2612 86.6989 45.2612 86.7551 45.205C86.8113 45.1487 86.8676 45.0925 86.8676 44.9801L87.3174 45.2612C87.2611 45.3736 87.2049 45.4861 87.0924 45.5423C86.98 45.5985 86.9238 45.711 86.8113 45.7672C86.6989 45.8234 86.5864 45.8797 86.474 45.8797C86.3615 45.9359 86.2491 45.9359 86.1366 45.9359C85.9117 45.9359 85.7431 45.8797 85.5744 45.8234C85.4057 45.711 85.237 45.5985 85.1246 45.4861C85.0121 45.3174 84.8997 45.205 84.8435 44.9801C84.7872 44.6427 84.7872 44.4178 84.7872 44.2491Z" fill="#333333"/>
<path d="M89.004 45.767C88.7791 45.767 88.6104 45.7108 88.4418 45.6546C88.2731 45.5984 88.1044 45.4859 87.992 45.3172C87.8795 45.2048 87.7671 45.0361 87.7108 44.8112C87.6546 44.6425 87.5984 44.4739 87.5984 44.249C87.5984 44.0803 87.6546 43.8554 87.7108 43.6867C87.7671 43.518 87.8795 43.3494 87.992 43.2369C88.1044 43.1245 88.2731 43.012 88.4418 42.8996C88.6104 42.8433 88.8353 42.7871 89.004 42.7871C89.2289 42.7871 89.3976 42.8433 89.5663 42.8996C89.7349 43.012 89.9036 43.1245 90.0161 43.2369C90.1285 43.4056 90.241 43.518 90.2972 43.7429C90.3534 43.9116 90.4096 44.0803 90.4096 44.3052C90.4096 44.4739 90.3534 44.6988 90.2972 44.8674C90.241 45.0361 90.1285 45.2048 90.0161 45.3172C89.9036 45.4297 89.7349 45.5421 89.5663 45.6546C89.3976 45.7108 89.2289 45.767 89.004 45.767ZM88.1606 44.249C88.1606 44.3614 88.1606 44.4739 88.2169 44.6425C88.2731 44.755 88.3293 44.8674 88.3855 44.9799C88.4418 45.0923 88.5542 45.1486 88.6667 45.2048C88.7791 45.261 88.8916 45.261 89.004 45.261C89.1165 45.261 89.2851 45.2048 89.3976 45.1486C89.51 45.0923 89.5663 45.0361 89.6787 44.9237C89.7349 44.8112 89.7912 44.6988 89.8474 44.5863C89.9036 44.4739 89.9036 44.3614 89.9036 44.249C89.9036 44.1365 89.9036 44.0241 89.8474 43.8554C89.7912 43.7429 89.7349 43.6305 89.6787 43.518C89.6225 43.4056 89.51 43.3494 89.3976 43.2931C89.2851 43.2369 89.1727 43.2369 89.0602 43.2369C88.9478 43.2369 88.7791 43.2931 88.6667 43.3494C88.5542 43.4056 88.4418 43.4618 88.3855 43.5743C88.3293 43.6867 88.2731 43.7992 88.2169 43.9116C88.1606 44.0241 88.1606 44.1365 88.1606 44.249Z" fill="#333333"/>
<path d="M93.1084 45.7108H90.9156V42.7871H91.4779V45.2048H92.6024V42.7871H93.1646V45.2048H93.6144V46.4417H93.0522V45.7108H93.1084Z" fill="#333333"/>
<path d="M94.0081 45.7108V42.7871H94.5703V45.7108H94.0081Z" fill="#333333"/>
<path d="M96.0884 42.7871H96.5944L97.7189 45.7108H97.1567L96.8756 44.9799H95.8635L95.5824 45.7108H95.0201L96.0884 42.7871ZM96.7069 44.5863L96.3133 43.4056L95.8635 44.5863H96.7069Z" fill="#333333"/>
<path d="M100.249 45.7108H98.0563V42.7871H98.6185V45.2048H99.743V42.7871H100.305V45.2048H100.755V46.4417H100.193V45.7108H100.249Z" fill="#333333"/>
<path d="M101.149 45.7108V42.7871H101.711V45.7108H101.149Z" fill="#333333"/>
<path d="M103.904 45.7108V44.6425H103.454L102.779 45.7108H102.161L102.892 44.5301C102.723 44.4739 102.61 44.3614 102.498 44.1927C102.386 44.0241 102.329 43.8554 102.329 43.6867C102.329 43.5743 102.329 43.4618 102.386 43.3494C102.442 43.2369 102.498 43.1245 102.554 43.0682C102.61 42.9558 102.723 42.8996 102.835 42.8433C102.948 42.7871 103.06 42.7871 103.229 42.7871H104.466V45.7108H103.904ZM103.904 43.2931H103.285C103.229 43.2931 103.173 43.2931 103.116 43.3494C103.06 43.3494 103.004 43.4056 103.004 43.4618C102.948 43.518 102.948 43.518 102.892 43.5743C102.892 43.6305 102.835 43.6867 102.835 43.7429C102.835 43.8554 102.892 43.9678 102.948 44.0803C103.004 44.1365 103.116 44.1927 103.229 44.1927H103.847V43.2931H103.904Z" fill="#333333"/>
<path d="M108.402 44.9801C108.402 45.0925 108.402 45.205 108.345 45.3174C108.289 45.4299 108.233 45.4861 108.12 45.5423C108.008 45.5985 107.952 45.6548 107.839 45.711C107.727 45.7672 107.614 45.7672 107.446 45.7672H106.04V42.8435H107.614C107.727 42.8435 107.783 42.8435 107.896 42.8997C107.952 42.956 108.064 43.0122 108.12 43.0684C108.177 43.1246 108.233 43.2371 108.233 43.2933C108.289 43.4058 108.289 43.462 108.289 43.5744C108.289 43.7431 108.233 43.8556 108.177 43.968C108.12 44.0805 108.008 44.1929 107.839 44.2491C108.008 44.3054 108.12 44.3616 108.233 44.5303C108.402 44.6427 108.402 44.8114 108.402 44.9801ZM106.602 43.2933V44.0242H107.39C107.502 44.0242 107.558 43.968 107.614 43.9118C107.671 43.8556 107.727 43.7431 107.727 43.6307C107.727 43.5182 107.671 43.4058 107.614 43.3495C107.558 43.2933 107.502 43.2371 107.39 43.2371H106.602V43.2933ZM107.839 44.8676C107.839 44.8114 107.839 44.7552 107.839 44.6989C107.839 44.6427 107.783 44.5865 107.783 44.5865C107.727 44.5303 107.727 44.5303 107.671 44.474C107.614 44.474 107.558 44.4178 107.558 44.4178H106.659V45.205H107.502C107.558 45.205 107.614 45.205 107.671 45.1487C107.727 45.1487 107.783 45.0925 107.783 45.0925C107.839 45.0363 107.839 45.0363 107.839 44.9801C107.839 44.9801 107.839 44.9238 107.839 44.8676Z" fill="#333333"/>
<path d="M109.92 45.7108V42.7871H110.482V45.7108H109.92Z" fill="#333333"/>
<path d="M110.932 44.2491C110.932 44.0805 110.988 43.9118 111.044 43.7431C111.1 43.5744 111.213 43.4058 111.325 43.2933C111.438 43.1809 111.606 43.0684 111.775 42.956C111.944 42.8435 112.169 42.8435 112.394 42.8435C112.675 42.8435 112.9 42.8997 113.125 43.0122C113.349 43.1246 113.462 43.2933 113.574 43.462L113.125 43.7431C113.068 43.6869 113.012 43.5744 112.956 43.5182C112.9 43.462 112.843 43.4058 112.787 43.4058C112.731 43.3495 112.675 43.3495 112.562 43.3495C112.506 43.3495 112.45 43.3495 112.337 43.3495C112.169 43.3495 112.056 43.4058 111.944 43.462C111.831 43.5182 111.775 43.5744 111.663 43.6869C111.606 43.7993 111.55 43.9118 111.494 44.0242C111.438 44.1367 111.438 44.2491 111.438 44.3616C111.438 44.474 111.438 44.6427 111.494 44.7552C111.55 44.8676 111.606 44.9801 111.663 45.0925C111.719 45.205 111.831 45.2612 111.944 45.3174C112.056 45.3736 112.169 45.3736 112.281 45.3736C112.337 45.3736 112.394 45.3736 112.506 45.3736C112.562 45.3736 112.675 45.3174 112.731 45.3174C112.787 45.2612 112.843 45.2612 112.9 45.205C112.956 45.1487 113.012 45.0925 113.012 44.9801L113.462 45.2612C113.406 45.3736 113.349 45.4861 113.237 45.5423C113.125 45.5985 113.068 45.711 112.956 45.7672C112.843 45.8234 112.731 45.8797 112.619 45.8797C112.506 45.9359 112.394 45.9359 112.281 45.9359C112.056 45.9359 111.888 45.8797 111.719 45.8234C111.55 45.711 111.382 45.5985 111.269 45.4861C111.157 45.3174 111.044 45.205 110.988 44.9801C110.988 44.6427 110.932 44.4178 110.932 44.2491Z" fill="#333333"/>
<path d="M113.968 42.7871H116.386V45.7108H115.823V43.2931H114.53V45.7108H113.968V42.7871Z" fill="#333333"/>
<path d="M117.904 42.7871H118.41L119.534 45.7108H118.972L118.635 44.9799H117.623L117.341 45.7108H116.779L117.904 42.7871ZM118.522 44.5863L118.129 43.4056L117.679 44.5863H118.522Z" fill="#333333"/>
<path d="M122.289 42.7871V45.7108H121.727V44.4739H120.378V45.7108H119.815V42.7871H120.378V43.9678H121.727V42.7871H122.289Z" fill="#333333"/>
<path d="M122.964 45.7108V42.7871H123.526V45.7108H122.964Z" fill="#333333"/>
<path d="M123.807 42.4499V41.9438H124.257V42.4499H123.807ZM124.145 45.7109V42.7872H124.707V45.7109H124.145ZM124.594 42.4499V41.9438H125.044V42.4499H124.594Z" fill="#333333"/>
<path d="M39.0764 41.3815H40.8194C40.0885 35.7028 42.5624 37.1084 45.5985 21.4779C45.2049 20.241 44.7551 19.1165 44.2491 18.1606H49.4218C48.8033 29.6305 48.8033 34.0161 52.1768 41.4377H53.5262C55.3254 43.8554 53.1889 45.8233 50.2089 47.2851C48.8595 47.7912 49.2531 48.5783 49.0282 48.4659C48.5784 48.2972 48.0724 47.51 48.8033 46.6104C49.8154 45.261 50.2089 44.0803 49.478 42.506H43.1246C42.3937 44.0803 42.7873 45.261 43.7993 46.6104C44.474 47.5663 44.0242 48.2972 43.5744 48.4659C43.3495 48.5783 43.7431 47.7912 42.3937 47.2851C39.4138 45.7671 37.2772 43.7992 39.0764 41.3815ZM45.711 41.3815H47.5101C47.7913 35.4779 47.4539 29.3494 46.3294 24.3454C42.5624 35.253 44.5865 39.0201 45.711 41.3815Z" fill="#3A59A1"/>
<path d="M63.1969 31.767C63.1969 31.9919 63.3656 32.1043 63.5343 31.8232C67.3576 24.6264 66.9078 23.8393 65.6708 21.6465H69.3816C71.4057 25.6385 63.8716 29.8553 63.9278 33.4537C63.9278 34.4658 65.8957 35.9276 66.7391 36.265C69.1567 37.3332 70.8435 38.9638 69.3816 40.8754H65.6708C67.47 38.4577 66.1768 37.0521 63.5343 34.8593C63.3094 34.6907 63.1969 34.8031 63.1969 35.028C63.3656 37.4457 64.1527 39.3573 64.5463 40.8754H60.4419C60.8917 39.3011 61.6226 37.3895 61.7913 35.028C61.7913 34.8031 61.6226 34.6907 61.4539 34.8593C58.8676 37.0521 57.5744 38.4577 59.3174 40.8754H55.6628C54.2009 38.9638 55.8877 37.3332 58.3053 36.265C59.1487 35.9276 61.0604 34.4095 61.1166 33.4537C61.1728 29.8553 53.6387 25.6385 55.6628 21.6465H59.3736C58.1367 23.8393 57.6869 24.5702 61.5102 31.8232C61.6788 32.1043 61.8475 31.9919 61.8475 31.767C62.0162 29.9678 61.1728 23.5581 60.4981 21.6465C61.6226 21.6465 63.1407 21.6465 64.6025 21.6465C63.8716 23.5581 62.972 29.9678 63.1969 31.767Z" fill="#3A59A1"/>
<path d="M76.6909 28.787C79.1086 29.518 80.7953 30.6425 79.3335 31.9356H75.6226C77.3094 29.2931 74.8917 29.5742 74.4981 28.787C74.3294 32.4979 74.8917 36.4336 75.7351 40.0883H77.7592C78.3214 38.8513 78.6588 37.0521 77.9841 35.8152C77.5343 34.9718 77.6467 33.7911 78.0403 33.6786C78.209 33.6224 78.3776 34.6907 79.1086 35.2529C80.5704 36.4336 81.8074 38.6826 80.964 40.8754H71.7993C73.6547 35.2529 73.0363 26.8192 71.7993 21.6465H80.6829C82.1447 23.5581 80.4017 25.1324 78.0403 26.2569C76.972 26.6505 77.3094 27.269 77.1407 27.2128C76.8033 27.0441 76.4098 26.4818 76.972 25.6947C77.8154 24.6264 78.0965 23.6706 77.5343 22.4336H75.7351C75.1728 23.8955 74.8355 25.4136 74.6668 27.0441C74.5543 28.3372 75.8475 28.5059 76.6909 28.787Z" fill="#3A59A1"/>
<path d="M83.213 40.8754C85.0684 35.2529 84.45 26.8192 83.213 21.6465H92.0965C93.5584 23.5581 91.8154 25.1324 89.454 26.2569C87.8797 26.9879 86.1929 28.8433 85.968 30.7549C85.7994 32.5541 86.6427 38.9638 87.3174 40.8754H83.213ZM86.2492 27.6625C88.5544 25.6947 89.7913 24.4015 88.8917 22.4336H87.0363C86.5865 23.783 86.0243 25.4698 85.9118 27.4939C85.8556 27.7188 86.1367 27.8874 86.2492 27.6625Z" fill="#3A59A1"/>
<path d="M99.1809 28.787C101.599 29.518 103.285 30.6425 101.823 31.9356H98.1126C99.7993 29.2931 97.3817 29.5742 96.9881 28.787C96.8194 32.4979 97.3817 36.4336 98.225 40.0883H100.249C100.811 38.8513 101.149 37.0521 100.474 35.8152C100.024 34.9718 100.137 33.7911 100.53 33.6786C100.699 33.6224 100.868 34.6907 101.599 35.2529C103.06 36.4336 104.297 38.6826 103.454 40.8754H94.2893C96.1447 35.2529 95.5263 26.8192 94.2893 21.6465H103.173C104.635 23.5581 102.892 25.1324 100.53 26.2569C99.462 26.6505 99.7993 27.269 99.6307 27.2128C99.2933 27.0441 98.8997 26.4818 99.462 25.6947C100.305 24.6264 100.586 23.6706 100.024 22.4336H98.1688C97.6066 23.8955 97.2692 25.4136 97.1006 27.0441C97.0443 28.3372 98.3375 28.5059 99.1809 28.787Z" fill="#3A59A1"/>
<path d="M109.47 24.2891C109.133 23.277 108.795 22.4336 108.402 21.6465H112.506C112 31.1485 112 34.522 115.036 40.8754H110.932C111.269 35.9276 110.988 30.6987 110.088 26.5381C106.603 36.5461 109.301 38.9638 109.92 40.8754H105.815C104.916 35.3654 106.996 37.3895 109.47 24.2891Z" fill="#3A59A1"/>
<path d="M119.366 40.8754C119.028 40.8754 118.466 40.7629 118.353 40.538C118.691 40.032 117.735 38.5702 116.667 35.6465C115.486 32.3292 115.88 28.1686 117.679 25.1887C118.578 23.5581 119.084 22.3212 118.466 21.6465H121.333C121.671 21.6465 122.233 21.7589 122.345 21.9838C122.008 22.4899 122.964 23.9517 124.032 26.8754C125.213 30.1927 124.819 34.3533 123.02 37.3332C122.121 38.9638 121.615 40.2007 122.233 40.8754H119.366ZM118.578 25.6947C115.542 31.5983 120.096 34.9718 121.165 38.514C121.502 38.0642 121.839 37.5019 122.177 36.8834C125.213 30.9798 120.659 27.6063 119.59 24.0642C119.197 24.514 118.86 25.0762 118.578 25.6947Z" fill="#3A59A1"/>
</g>
<defs>
<clipPath id="clip0_7117_12457">
<rect width="125.1" height="70" fill="white"/>
</clipPath>
</defs>
</svg>
