<svg width="24" height="24" viewBox="0 0 24 24" fill="none" xmlns="http://www.w3.org/2000/svg">
<path d="M0.750244 22.3636L2.73335 17.7965C1.21617 15.6428 0.53711 13.0094 0.823613 10.3906C1.11012 7.77177 2.34248 5.34753 4.28944 3.5728C6.2364 1.79807 8.76411 0.794875 11.3982 0.75147C14.0323 0.708065 16.5917 1.62744 18.596 3.33705C20.6004 5.04667 21.912 7.429 22.2846 10.037C22.6573 12.6449 22.0653 15.2992 20.6199 17.5017C19.1745 19.7043 16.975 21.3036 14.4342 21.9996C11.8933 22.6956 9.18582 22.4404 6.81976 21.282L0.750244 22.3636" stroke="#333333" stroke-width="1.5" stroke-linecap="round" stroke-linejoin="round"/>
<path d="M7.96143 9.14267C7.96143 9.30205 8.02474 9.4549 8.13744 9.5676C8.25014 9.6803 8.40299 9.74361 8.56237 9.74361C8.72175 9.74361 8.8746 9.6803 8.9873 9.5676C9.1 9.4549 9.16331 9.30205 9.16331 9.14267V7.94079C9.16331 7.78141 9.1 7.62855 8.9873 7.51586C8.8746 7.40316 8.72175 7.33984 8.56237 7.33984C8.40299 7.33984 8.25014 7.40316 8.13744 7.51586C8.02474 7.62855 7.96143 7.78141 7.96143 7.94079V9.14267ZM7.96143 9.14267C7.96143 10.7365 8.59456 12.265 9.72155 13.392C10.8485 14.519 12.3771 15.1521 13.9709 15.1521H15.1727C15.3321 15.1521 15.485 15.0888 15.5977 14.9761C15.7104 14.8634 15.7737 14.7105 15.7737 14.5512C15.7737 14.3918 15.7104 14.2389 15.5977 14.1262C15.485 14.0135 15.3321 13.9502 15.1727 13.9502H13.9709C13.8115 13.9502 13.6586 14.0135 13.5459 14.1262C13.4332 14.2389 13.3699 14.3918 13.3699 14.5512C13.3699 14.7105 13.4332 14.8634 13.5459 14.9761C13.6586 15.0888 13.8115 15.1521 13.9709 15.1521" stroke="#333333" stroke-width="1.5" stroke-linecap="round" stroke-linejoin="round"/>
</svg>
